<?xml version="1.0" standalone="no"?>
<!DOCTYPE svg PUBLIC "-//W3C//DTD SVG 1.1//EN" "http://www.w3.org/Graphics/SVG/1.1/DTD/svg11.dtd" >
<svg xmlns="http://www.w3.org/2000/svg">
<metadata>Generated by IcoMoon</metadata>
<defs>
<font id="icomoon" horiz-adv-x="1024">
<font-face units-per-em="1024" ascent="960" descent="-64" />
<missing-glyph horiz-adv-x="1024" />
<glyph unicode="&#x20;" horiz-adv-x="512" d="" />
<glyph unicode="&#xe900;" d="M608.402 64.532h-385.602c-7.956 0-15.586 3.16-21.212 8.788l-192.8 192.8c-8.58 8.58-11.146 21.482-6.504 32.694 4.644 11.21 15.584 18.52 27.716 18.52h385.6c7.956 0 15.586-3.16 21.212-8.788l192.8-192.8c8.58-8.58 11.146-21.482 6.504-32.694-4.642-11.21-15.58-18.52-27.714-18.52z" />
<glyph unicode="&#xe901;" d="M636.118 83.052c4.642 11.21 2.076 24.114-6.504 32.694l-85.48 85.48v-136.694h64.268c12.134 0 23.072 7.31 27.716 18.52z" />
<glyph unicode="&#xe902;" d="M994 578.666h-192.8c-16.568 0-30 13.432-30 30v192.8c0 12.134 7.308 23.072 18.52 27.716 11.208 4.64 24.116 2.078 32.694-6.504l192.8-192.8c8.58-8.58 11.146-21.482 6.504-32.694-4.646-11.21-15.584-18.518-27.718-18.518z" />
<glyph unicode="&#xe903;" d="M801.206 257.334c-7.806 0-15.48 3.046-21.218 8.788l-257.068 257.064c-11.716 11.714-11.716 30.71 0 42.426l257.068 257.068c8.58 8.582 21.488 11.144 32.694 6.504 11.21-4.644 18.52-15.582 18.52-27.716v-514.132c0-12.134-7.308-23.072-18.52-27.716-3.712-1.54-7.61-2.286-11.476-2.286z" />
<glyph unicode="&#xe904;" d="M415.608 257.334c-7.808 0-15.48 3.046-21.22 8.788l-385.6 385.6c-8.58 8.58-11.146 21.482-6.504 32.694 4.644 11.21 15.584 18.52 27.716 18.52h385.6c16.568 0 30-13.432 30-30v-385.6c0-12.134-7.31-23.072-18.52-27.716-3.71-1.54-7.608-2.286-11.472-2.286z" />
<glyph unicode="&#xe905;" d="M608.402 64.532c-7.958 0-15.588 3.16-21.212 8.788l-192.8 192.8c-8.58 8.58-11.146 21.482-6.504 32.694 4.644 11.21 15.584 18.52 27.716 18.52h385.6c12.134 0 23.072-7.308 27.716-18.52 4.642-11.21 2.076-24.114-6.504-32.694l-192.798-192.8c-5.626-5.628-13.258-8.788-21.214-8.788z" />
<glyph unicode="&#xe906;" d="M608.402 64.532c7.958 0 15.588 3.16 21.212 8.788l192.798 192.8c8.58 8.58 11.146 21.482 6.504 32.694-4.644 11.21-15.582 18.52-27.716 18.52h-257.066v-200.958l43.054-43.054c5.626-5.63 13.256-8.79 21.214-8.79z" />
<glyph unicode="&#xe907;" d="M801.2 257.334h-385.6c-16.568 0-30 13.432-30 30v385.6c0 12.134 7.31 23.072 18.52 27.716 11.208 4.644 24.114 2.076 32.694-6.504l385.6-385.6c8.58-8.58 11.146-21.482 6.504-32.694-4.646-11.21-15.584-18.518-27.718-18.518z" />
<glyph unicode="&#xe908;" d="M828.916 275.852c4.642 11.21 2.076 24.114-6.504 32.694l-278.28 278.28v-329.492h257.068c12.134 0 23.072 7.308 27.716 18.518z" />
<glyph unicode="&#xe909;" d="M53.050 580.97l-52.636-180.466c-2.646-9.072 7.95-16.166 15.33-10.262l90.418 71.956z" />
<glyph unicode="&#xe90a;" d="M791.090 958.884l-368.256-190.29v-20.518l148.458-323.478 10.384-5.748 222.766 527.678c3.52 8.336-5.312 16.51-13.352 12.356z" />
<glyph unicode="&#xe90b;" d="M773.354 872.886l31.088 73.64c3.52 8.336-5.314 16.51-13.352 12.356l-368.256-190.288v-20.518l34.44-75.040z" />
<glyph unicode="&#xe90c;" d="M581.676 418.848l-18.626 5.92-350.606-176.334-15.124-20.488 488.1-131.934z" />
<glyph unicode="&#xe90d;" d="M602.874 352.882l-21.198 65.966-18.626 5.92-350.606-176.334-15.124-20.488 102.21-27.628z" />
<glyph unicode="&#xe90e;" d="M257.058 577.368c-1.836 2.278-4.606 3.602-7.532 3.602h-196.476l144.27-353.024 124.152 270.324z" />
<glyph unicode="&#xe90f;" d="M134.336 580.97h-81.286l144.27-353.024 43.012 93.654z" />
<glyph unicode="&#xe910;" d="M894.916-48.922l-313.24 467.77 120.938-426.16c0.916-3.228 3.438-5.75 6.666-6.664l174.958-49.634c8.66-2.456 15.686 7.208 10.678 14.688z" />
<glyph unicode="&#xe911;" d="M422.834 768.594l-225.514-540.648 384.356 190.902z" />
<glyph unicode="&#xe912;" d="M464.28 677.336l-41.446 91.258-225.514-540.648 100.29 49.812z" />
<glyph unicode="&#xe913;" d="M1008.538 894.216l-90.538-88.802-226-37.416h-360l-226 37.416-90.538 88.802c-9.39-5.206-15.462-15.156-15.462-26.218v-110.558c0-63.134 14.92-126.354 43.198-182.92 24.616-49.24 38.258-102.096 40.55-157.098l0.376-9.004c4.622-110.94 51.298-214.366 131.43-291.228s185.412-119.192 296.448-119.192 216.316 42.33 296.446 119.192c80.132 76.862 126.808 180.29 131.43 291.228l0.376 9c2.292 55.026 15.946 107.904 40.582 157.162 28.236 56.47 43.164 119.69 43.164 182.828v110.59c0 11.062-6.072 21.012-15.462 26.218z" />
<glyph unicode="&#xe914;" d="M1008.538 894.216l-90.538-88.802-226-37.416h-180v-770c111.036 0 216.316 42.33 296.446 119.192 80.132 76.862 126.808 180.29 131.43 291.228l0.376 9c2.292 55.026 15.946 107.904 40.582 157.162 28.238 56.47 43.166 119.69 43.166 182.828v110.59c0 11.062-6.072 21.012-15.462 26.218z" />
<glyph unicode="&#xe915;" d="M512 257.998c-9.442 0-18.334 4.446-24 12l-108.078 144.104c-3.894 5.192-6 11.508-6 18v151.896c0 16.568 13.432 30 30 30h216.156c16.568 0 30-13.432 30-30v-151.896c0-6.492-2.106-12.808-6-18l-108.078-144.104c-5.666-7.554-14.558-12-24-12z" />
<glyph unicode="&#xe916;" d="M620.078 613.998h-108.078v-356c9.442 0 18.334 4.446 24 12l108.078 144.104c3.894 5.192 6 11.508 6 18v151.896c0 16.568-13.432 30-30 30z" />
<glyph unicode="&#xe917;" d="M332 647.998c66.274 0 120-53.726 120-120h120c0 66.274 53.726 120 120 120 111.084 0 213.422 60.27 267.294 157.416l49.244 88.802c-1.832 1.016-3.78 1.87-5.846 2.496-12.648 3.834-26.322-1.072-33.656-12.072-39.328-58.99-113.16-82.802-179.544-57.912l-108.182 40.568c-54.326 20.372-111.29 30.702-169.31 30.702s-114.984-10.33-169.312-30.702l-108.184-40.568c-66.384-24.894-140.214-1.080-179.542 57.912-7.334 11-21 15.902-33.656 12.072-2.066-0.626-4.012-1.48-5.846-2.496l49.244-88.802c53.874-97.146 156.212-157.416 267.296-157.416z" />
<glyph unicode="&#xe918;" d="M572 527.998c0 66.274 53.726 120 120 120 111.084 0 213.422 60.27 267.294 157.416l49.244 88.802c-1.832 1.016-3.78 1.87-5.846 2.496-12.648 3.834-26.322-1.072-33.656-12.072-39.328-58.99-113.16-82.802-179.544-57.912l-108.182 40.568c-54.326 20.372-111.29 30.702-169.31 30.702v-370z" />
<glyph unicode="&#xe919;" d="M692 377.998c-82.71 0-150 67.29-150 150s67.29 150 150 150 150-67.29 150-150-67.29-150-150-150z" />
<glyph unicode="&#xe91a;" d="M782 527.998c0-49.706-40.294-90-90-90s-90 40.294-90 90c0 49.706 40.294 90 90 90s90-40.294 90-90z" />
<glyph unicode="&#xe91b;" d="M332 377.998c-82.71 0-150 67.29-150 150s67.29 150 150 150 150-67.29 150-150-67.29-150-150-150z" />
<glyph unicode="&#xe91c;" d="M422 527.998c0-49.706-40.294-90-90-90s-90 40.294-90 90c0 49.706 40.294 90 90 90s90-40.294 90-90z" />
<glyph unicode="&#xe91d;" d="M722 527.998c0-16.569-13.431-30-30-30s-30 13.431-30 30c0 16.569 13.431 30 30 30s30-13.431 30-30z" />
<glyph unicode="&#xe91e;" d="M362 527.998c0-16.569-13.431-30-30-30s-30 13.431-30 30c0 16.569 13.431 30 30 30s30-13.431 30-30z" />
</font>
</defs>
</svg>
